<svg width="28" height="28" viewBox="0 0 28 28" fill="none" xmlns="http://www.w3.org/2000/svg">
<path id="Vector" d="M20.75 13.3538C20.9577 13.6769 21.1654 14 21.2692 14.5385H17.9462C17.9462 14.4308 17.9462 14.2154 18.05 14C18.1538 13.7846 18.1538 13.6769 18.3615 13.4615C18.4654 13.2462 18.6731 13.1385 18.8808 13.0308C19.0885 12.9231 19.4 12.8154 19.7115 12.8154C20.1269 12.9231 20.5423 13.0308 20.75 13.3538ZM11.1962 12.6C11.4038 12.3846 11.6115 12.0615 11.6115 11.6308C11.6115 11.4154 11.6115 11.2 11.5077 10.9846C11.4038 10.8769 11.3 10.6615 11.1962 10.6615C11.0923 10.5538 10.8846 10.5538 10.6769 10.4462H7.97692V12.9231H10.2615C10.5731 12.9231 10.8846 12.8154 11.1962 12.6ZM10.3654 14.4308H7.97692V17.3385H10.3654C10.5731 17.3385 10.7808 17.3385 10.9885 17.2308C11.1962 17.2308 11.4038 17.1231 11.5077 17.0154C11.6115 16.9077 11.8192 16.8 11.9231 16.5846C12.0269 16.3692 12.0269 16.1538 12.0269 15.9385C12.0269 15.4 11.9231 14.9692 11.6115 14.7538C11.3 14.5385 10.8846 14.4308 10.3654 14.4308ZM27.5 5.27692V22.7231C27.5 25.6308 25.2154 28 22.4115 28H5.58846C2.78462 28 0.5 25.6308 0.5 22.7231V5.27692C0.5 2.36923 2.78462 0 5.58846 0H22.4115C25.2154 0 27.5 2.36923 27.5 5.27692ZM17.5308 10.3385H21.6846V9.26154H17.5308V10.3385ZM14.2077 16.1538C14.2077 15.5077 14.1038 14.9692 13.7923 14.4308C13.4808 14 13.0654 13.6769 12.4423 13.4615C12.8577 13.2462 13.2731 12.9231 13.4808 12.6C13.6885 12.2769 13.7923 11.8462 13.7923 11.3077C13.7923 10.7692 13.6885 10.4462 13.5846 10.0154C13.3769 9.69231 13.1692 9.36923 12.9615 9.26154C12.65 9.04615 12.3385 8.93846 11.9231 8.83077C11.4038 8.61539 10.9885 8.61539 10.4692 8.61539H5.69231V19.1692H10.6769C11.0923 19.1692 11.6115 19.0615 12.0269 18.9538C12.4423 18.8462 12.8577 18.6308 13.1692 18.4154C13.4808 18.2 13.7923 17.8769 14 17.4462C14.1038 17.1231 14.2077 16.6923 14.2077 16.1538ZM17.9462 15.8308H23.2423C23.2423 15.1846 23.2423 14.6462 23.1385 14.1077C23.0346 13.5692 22.8269 13.0308 22.5154 12.7077C22.2038 12.2769 21.7885 11.9538 21.3731 11.7385C20.8538 11.5231 20.3346 11.3077 19.7115 11.3077C19.1923 11.3077 18.6731 11.4154 18.1538 11.6308C17.7385 11.8462 17.3231 12.1692 16.9077 12.4923C16.5962 12.8154 16.2846 13.2462 16.1808 13.7846C15.9731 14.3231 15.8692 14.8615 15.8692 15.4C15.8692 15.9385 15.9731 16.5846 16.1808 17.0154C16.3885 17.5538 16.5962 17.9846 16.9077 18.3077C17.2192 18.6308 17.6346 18.9538 18.05 19.1692C18.5692 19.3846 19.0885 19.4923 19.6077 19.4923C20.4385 19.4923 21.1654 19.2769 21.7885 18.8462C22.4115 18.4154 22.8269 17.7692 23.1385 16.9077H21.3731C21.2692 17.1231 21.1654 17.3385 20.8538 17.5538C20.5423 17.7692 20.2308 17.8769 19.8154 17.8769C19.2962 17.8769 18.7769 17.7692 18.4654 17.4462C18.1538 17.0154 17.9462 16.4769 17.9462 15.8308Z" fill="#FFD027"/>
</svg>
