<svg width="34" height="34" viewBox="0 0 34 34" fill="none" xmlns="http://www.w3.org/2000/svg">
<g id="mdi:github">
<path id="Vector" d="M17 3.25C15.1943 3.25 13.4063 3.60565 11.7381 4.29666C10.0699 4.98766 8.55409 6.00048 7.27728 7.27728C4.69866 9.85591 3.25 13.3533 3.25 17C3.25 23.0775 7.19625 28.2337 12.655 30.0625C13.3425 30.1725 13.5625 29.7463 13.5625 29.375V27.0512C9.75375 27.8762 8.9425 25.2087 8.9425 25.2087C8.31 23.6137 7.41625 23.1875 7.41625 23.1875C6.165 22.335 7.5125 22.3625 7.5125 22.3625C8.8875 22.4587 9.61625 23.7788 9.61625 23.7788C10.8125 25.8687 12.8337 25.25 13.6175 24.92C13.7412 24.0263 14.0987 23.4212 14.4837 23.0775C11.4312 22.7337 8.2275 21.5513 8.2275 16.3125C8.2275 14.7863 8.75 13.5625 9.64375 12.5863C9.50625 12.2425 9.025 10.8125 9.78125 8.95625C9.78125 8.95625 10.9362 8.585 13.5625 10.3588C14.6487 10.0563 15.8312 9.905 17 9.905C18.1687 9.905 19.3512 10.0563 20.4375 10.3588C23.0637 8.585 24.2187 8.95625 24.2187 8.95625C24.975 10.8125 24.4937 12.2425 24.3562 12.5863C25.25 13.5625 25.7725 14.7863 25.7725 16.3125C25.7725 21.565 22.555 22.72 19.4887 23.0637C19.9837 23.49 20.4375 24.3288 20.4375 25.6075V29.375C20.4375 29.7463 20.6575 30.1863 21.3587 30.0625C26.8175 28.22 30.75 23.0775 30.75 17C30.75 15.1943 30.3943 13.4063 29.7033 11.7381C29.0123 10.0699 27.9995 8.55409 26.7227 7.27728C25.4459 6.00048 23.9301 4.98766 22.2619 4.29666C20.5937 3.60565 18.8057 3.25 17 3.25Z" fill="#FFD027"/>
</g>
</svg>
