<svg width="32" height="32" viewBox="0 0 32 32" fill="none" xmlns="http://www.w3.org/2000/svg">
<g id="ri:instagram-fill">
<path id="Vector" d="M17.3278 3.0846C18.2704 3.08098 19.213 3.09045 20.1553 3.11301L20.4059 3.12206C20.6952 3.13239 20.9807 3.14531 21.3255 3.16081C22.6999 3.22539 23.6376 3.44239 24.4604 3.76143C25.3129 4.08951 26.0311 4.53385 26.7492 5.25201C27.4059 5.89734 27.9141 6.67794 28.2385 7.53956C28.5576 8.36235 28.7746 9.30139 28.8392 10.6757C28.8547 11.0193 28.8676 11.3061 28.8779 11.5954L28.8857 11.846C28.9086 12.7878 28.9185 13.73 28.9154 14.6721L28.9167 15.6357V17.3278C28.9198 18.2704 28.9099 19.213 28.8869 20.1553L28.8792 20.4058C28.8689 20.6952 28.856 20.9806 28.8405 21.3255C28.7759 22.6998 28.5563 23.6376 28.2385 24.4604C27.9152 25.3229 27.4068 26.1042 26.7492 26.7492C26.1034 27.4058 25.3223 27.914 24.4604 28.2385C23.6376 28.5576 22.6999 28.7746 21.3255 28.8391C20.9807 28.8546 20.6952 28.8676 20.4059 28.8779L20.1553 28.8856C19.213 28.9086 18.2704 28.9185 17.3278 28.9153L16.3642 28.9166H14.6734C13.7309 28.9198 12.7883 28.9099 11.846 28.8869L11.5954 28.8792C11.2888 28.8681 10.9822 28.8551 10.6757 28.8404C9.30141 28.7758 8.36366 28.5563 7.53958 28.2385C6.67763 27.9148 5.89688 27.4065 5.25203 26.7492C4.59463 26.1038 4.08595 25.3227 3.76145 24.4604C3.44241 23.6376 3.22541 22.6998 3.16083 21.3255C3.14644 21.019 3.13352 20.7125 3.12208 20.4058L3.11562 20.1553C3.0918 19.213 3.08104 18.2704 3.08333 17.3278V14.6721C3.07972 13.73 3.08919 12.7879 3.11174 11.846L3.12078 11.5954C3.13112 11.3061 3.14403 11.0193 3.15953 10.6757C3.22412 9.3001 3.44112 8.36364 3.76016 7.53956C4.08485 6.67752 4.59453 5.89713 5.25333 5.25331C5.89773 4.59553 6.67798 4.08638 7.53958 3.76143C8.36366 3.44239 9.30012 3.22539 10.6757 3.16081L11.5954 3.12206L11.846 3.1156C12.7879 3.0918 13.73 3.08103 14.6722 3.08331L17.3278 3.0846ZM16 9.54293C15.1443 9.53083 14.2947 9.68892 13.5006 10.008C12.7065 10.3271 11.9837 10.8009 11.3743 11.4017C10.7649 12.0026 10.281 12.7185 9.95071 13.508C9.62042 14.2975 9.45033 15.1448 9.45033 16.0006C9.45033 16.8564 9.62042 17.7037 9.95071 18.4932C10.281 19.2827 10.7649 19.9987 11.3743 20.5995C11.9837 21.2004 12.7065 21.6741 13.5006 21.9932C14.2947 22.3123 15.1443 22.4704 16 22.4583C17.7128 22.4583 19.3556 21.7779 20.5667 20.5667C21.7779 19.3555 22.4583 17.7128 22.4583 16C22.4583 14.2871 21.7779 12.6444 20.5667 11.4332C19.3556 10.2221 17.7128 9.54293 16 9.54293ZM16 12.1263C16.5147 12.1168 17.0262 12.21 17.5045 12.4004C17.9828 12.5908 18.4184 12.8746 18.7858 13.2352C19.1532 13.5959 19.4451 14.0261 19.6444 14.5008C19.8436 14.9755 19.9463 15.4851 19.9464 16C19.9465 16.5148 19.844 17.0245 19.6449 17.4992C19.4458 17.974 19.154 18.4043 18.7868 18.7651C18.4195 19.1259 17.984 19.4098 17.5057 19.6004C17.0275 19.7909 16.516 19.8843 16.0013 19.875C14.9736 19.875 13.9879 19.4667 13.2612 18.74C12.5345 18.0133 12.1263 17.0277 12.1263 16C12.1263 14.9723 12.5345 13.9866 13.2612 13.2599C13.9879 12.5332 14.9736 12.125 16.0013 12.125L16 12.1263ZM22.7812 7.60543C22.3645 7.62211 21.9705 7.79937 21.6815 8.1001C21.3926 8.40083 21.2312 8.80169 21.2312 9.21872C21.2312 9.63576 21.3926 10.0366 21.6815 10.3373C21.9705 10.6381 22.3645 10.8153 22.7812 10.832C23.2095 10.832 23.6201 10.6619 23.9229 10.3591C24.2257 10.0563 24.3958 9.64564 24.3958 9.21743C24.3958 8.78922 24.2257 8.37854 23.9229 8.07575C23.6201 7.77295 23.2095 7.60285 22.7812 7.60285V7.60543Z" fill="#FFD027"/>
</g>
</svg>
