<svg width="37" height="36" viewBox="0 0 37 36" fill="none" xmlns="http://www.w3.org/2000/svg">
<g id="mdi:linkedin">
<path id="Vector" d="M29 4.5C29.7956 4.5 30.5587 4.81607 31.1213 5.37868C31.6839 5.94129 32 6.70435 32 7.5V28.5C32 29.2956 31.6839 30.0587 31.1213 30.6213C30.5587 31.1839 29.7956 31.5 29 31.5H8C7.20435 31.5 6.44129 31.1839 5.87868 30.6213C5.31607 30.0587 5 29.2956 5 28.5V7.5C5 6.70435 5.31607 5.94129 5.87868 5.37868C6.44129 4.81607 7.20435 4.5 8 4.5H29ZM26.25 27.75C27.1928 27.75 27.6642 27.75 27.9571 27.4571C28.25 27.1642 28.25 26.6928 28.25 25.75V19.8C28.25 18.5031 27.7348 17.2593 26.8178 16.3422C25.9007 15.4252 24.6569 14.91 23.36 14.91C22.4799 14.91 21.4998 15.2816 20.7403 15.8966C20.4525 16.1297 19.88 15.9327 19.88 15.5623C19.88 15.3594 19.7156 15.195 19.5127 15.195H17.695C16.7522 15.195 16.2808 15.195 15.9879 15.4879C15.695 15.7808 15.695 16.2522 15.695 17.195V25.75C15.695 26.6928 15.695 27.1642 15.9879 27.4571C16.2808 27.75 16.7522 27.75 17.695 27.75H17.88C18.8228 27.75 19.2942 27.75 19.5871 27.4571C19.88 27.1642 19.88 26.6928 19.88 25.75V20.355C19.88 19.2 20.81 18.255 21.965 18.255C22.522 18.255 23.0561 18.4762 23.4499 18.8701C23.8438 19.2639 24.065 19.798 24.065 20.355V25.75C24.065 26.6928 24.065 27.1642 24.3579 27.4571C24.6508 27.75 25.1222 27.75 26.065 27.75H26.25ZM10.82 12.84C11.4883 12.84 12.1293 12.5745 12.6019 12.1019C13.0745 11.6293 13.34 10.9883 13.34 10.32C13.34 8.925 12.215 7.785 10.82 7.785C10.1477 7.785 9.50289 8.05208 9.02748 8.52748C8.55208 9.00289 8.285 9.64768 8.285 10.32C8.285 11.715 9.425 12.84 10.82 12.84ZM10.905 27.75C11.8478 27.75 12.3192 27.75 12.6121 27.4571C12.905 27.1642 12.905 26.6928 12.905 25.75V17.195C12.905 16.2522 12.905 15.7808 12.6121 15.4879C12.3192 15.195 11.8478 15.195 10.905 15.195H10.75C9.80719 15.195 9.33579 15.195 9.04289 15.4879C8.75 15.7808 8.75 16.2522 8.75 17.195V25.75C8.75 26.6928 8.75 27.1642 9.04289 27.4571C9.33579 27.75 9.80719 27.75 10.75 27.75H10.905Z" fill="#FFD027"/>
</g>
</svg>
