<svg xmlns="http://www.w3.org/2000/svg" width="24" height="25" viewBox="0 0 24 25" fill="none">
  <path d="M13.2844 1.42969C13.1344 1.42969 11.8219 1.66828 11.8219 1.66828C11.7609 3.61875 10.3969 5.34703 7.58905 5.64703L6.98905 4.56563L5.81249 4.68187L6.34218 7.49859L1.00827 7.26891L1.58015 9.21422C7.32655 11.0658 7.06405 16.3627 5.81249 21.097C8.01561 23.5814 12.4594 23.3377 14.5312 23.1173C14.6766 20.2017 16.9875 20.0939 20.9016 21.608C21.4312 20.783 21.7828 19.9205 22.9922 19.2314L20.8078 12.6923L19.5187 12.983C20.0344 11.9939 21.0281 10.6439 21.8812 10.0111L22.6125 5.93766C18.4594 5.64234 15.75 3.76453 13.2844 1.42969Z" fill="#202041"/>
</svg>