<svg width="57" height="58" viewBox="0 0 57 58" fill="none" xmlns="http://www.w3.org/2000/svg">
<ellipse cx="28.478" cy="29" rx="28.478" ry="29" fill="#EFEFEF"/>
<g clip-path="url(#clip0_858_3254)">
<path fill-rule="evenodd" clip-rule="evenodd" d="M21.072 31.2106C20.6038 30.7332 20.3408 30.0861 20.3408 29.4114C20.3408 28.7366 20.6038 28.0895 21.072 27.6121L30.4999 18.0081C30.9689 17.5307 31.605 17.2625 32.2682 17.2627C32.5965 17.2628 32.9217 17.3287 33.225 17.4568C33.5284 17.5848 33.804 17.7724 34.0361 18.0089C34.2683 18.2454 34.4524 18.5262 34.578 18.8352C34.7036 19.1441 34.7682 19.4753 34.7681 19.8096C34.768 20.144 34.7033 20.4751 34.5775 20.784C34.4518 21.0929 34.2675 21.3736 34.0353 21.61L26.3744 29.4114L34.0353 37.2127C34.2742 37.4475 34.4648 37.7283 34.596 38.0389C34.7272 38.3495 34.7963 38.6835 34.7993 39.0216C34.8024 39.3597 34.7393 39.695 34.6137 40.0079C34.4881 40.3209 34.3026 40.6053 34.068 40.8445C33.8333 41.0836 33.5542 41.2728 33.247 41.401C32.9398 41.5292 32.6106 41.5937 32.2786 41.591C31.9466 41.5882 31.6185 41.5181 31.3134 41.3848C31.0083 41.2515 30.7323 41.0577 30.5015 40.8146L21.0687 31.2106H21.072Z" fill="#202041"/>
</g>
<defs>
<clipPath id="clip0_858_3254">
<rect width="40.0049" height="40.7381" fill="white" transform="translate(8.81445 8.97656)"/>
</clipPath>
</defs>
</svg>
