<svg xmlns="http://www.w3.org/2000/svg" fill="none" viewBox="38.26 23.76 198.12 90.27">
<g filter="url(#filter0_d_541_14189)">
<g clip-path="url(#clip0_541_14189)">
<path d="M124.442 61.1197L124.435 65.8819L117.867 65.8729L117.874 61.1766C117.88 56.2642 115.879 51.8147 112.638 48.5924C109.397 45.369 104.918 43.3716 99.9661 43.3649C90.0627 43.3514 82.0233 51.3043 82.0099 61.1277L82.0035 65.8241L75.4355 65.8152L75.442 61.053C75.4589 47.6666 86.4134 36.8301 99.9086 36.8485L100.04 36.8486C113.537 36.867 124.46 47.7333 124.442 61.1197Z" fill="#1C1C1C"/>
<path d="M111.442 61.0659L111.435 65.863L105.055 65.8543L105.061 61.1214C105.063 59.7617 104.5 58.5309 103.587 57.64C102.675 56.748 101.413 56.196 100.017 56.1941C97.2269 56.1903 94.9619 58.3896 94.9582 61.1089L94.9517 65.8417L88.4355 65.8329L88.442 61.0358C88.4504 54.8495 93.6057 49.8399 99.9573 49.8485C103.132 49.8529 106.006 51.1103 108.084 53.1415C110.162 55.1703 111.446 57.974 111.442 61.0659Z" fill="#2D74FF"/>
<path d="M160.731 86.2997C160.448 86.6751 160.206 86.8526 159.865 86.8521C159.399 86.8515 159.122 86.5334 159.123 85.7238L159.131 80.2351C159.135 76.9643 157.876 75.6916 154.974 75.6876C151.909 75.6835 149.973 76.9808 149.668 78.984C149.791 79.713 150.293 80.1209 151.08 80.122C151.903 80.1231 152.499 79.5843 152.643 78.374L152.938 76.9861C153.338 76.9198 153.675 76.9014 153.989 76.9018C155.614 76.904 156.175 77.5365 156.172 79.8805L156.171 80.5955C155.306 80.82 154.428 81.0723 153.787 81.2794C150.175 82.4522 149.304 83.6476 149.302 85.2477C149.299 87.327 150.73 88.4309 152.614 88.4335C154.205 88.4357 155.02 87.7685 156.261 86.5068C156.542 87.6874 157.408 88.3921 158.733 88.3939C159.924 88.3955 160.712 87.9679 161.315 86.7999L160.731 86.2997ZM153.989 86.597C152.991 86.5956 152.227 86.0385 152.229 84.7436C152.23 83.7827 152.73 82.8819 154.413 82.2083C154.837 82.0248 155.48 81.8088 156.17 81.6093L156.164 85.5723C155.075 86.3564 154.636 86.5979 153.989 86.597Z" fill="#1C1C1C"/>
<path d="M143.479 71.53C143.48 70.4646 144.315 69.7356 145.371 69.7371C146.426 69.7385 147.263 70.4685 147.261 71.5352C147.26 72.5868 146.421 73.3321 145.366 73.3307C144.31 73.3292 143.477 72.5829 143.479 71.53Z" fill="#1C1C1C"/>
<path d="M148.425 87.0434L148.424 88.0735L142.215 88.0651L142.216 87.0349L143.855 86.7144C143.882 85.4674 143.895 83.8748 143.897 82.7842L143.898 81.5926C143.9 80.2094 143.876 79.4301 143.827 78.4251L142.032 78.1969L142.034 77.2613L146.561 75.675L146.965 75.934L146.883 79.4582L146.878 82.787C146.877 83.8814 146.886 85.4815 146.909 86.7311L148.425 87.0434Z" fill="#1C1C1C"/>
<path d="M141.544 87.0341L141.543 88.0643L135.036 88.0554L135.038 87.0253L136.743 86.6998C136.772 85.3922 136.788 84.0834 136.79 82.7759L136.804 71.9774L134.996 71.724L134.997 70.7531L139.546 69.627L139.922 69.8558L139.818 73.3988L139.805 82.7787C139.803 84.0926 139.815 85.4039 139.841 86.7141L141.544 87.0341Z" fill="#1C1C1C"/>
<path d="M134.419 76.1424L134.043 75.895L131.26 76.9596C130.445 76.2847 129.263 75.9158 127.772 75.9137C124.754 75.9096 122.967 77.477 122.963 79.9366C122.961 81.4952 123.644 82.6688 124.894 83.3357C123.676 84.4409 123.112 85.3548 123.11 86.3029C123.109 87.2063 123.594 87.8808 124.64 88.247C123.034 89.0117 122.403 89.8659 122.401 90.9232C122.399 92.5699 123.768 93.881 127.586 93.8862C131.955 93.8922 134.222 91.7856 134.225 89.4576C134.228 87.3815 132.949 86.0619 129.743 86.0575L126.681 86.0533C125.577 86.0518 125.253 85.6518 125.254 85.0263C125.254 84.5089 125.399 84.1095 125.714 83.6681C126.305 83.8501 126.987 83.9466 127.748 83.9476C130.752 83.9517 132.539 82.3732 132.543 79.9496C132.544 79.1467 132.368 78.4453 132.03 77.8641L134.419 77.8674L134.421 76.1424L134.419 76.1424ZM126.885 88.6943L129.631 88.6981C131.193 88.7002 131.773 89.4704 131.771 90.3825C131.77 91.621 130.416 92.5945 127.823 92.591C125.741 92.5881 124.593 91.9537 124.595 90.4013C124.596 89.6889 124.794 89.1792 125.271 88.5532C125.729 88.6543 126.286 88.6935 126.885 88.6943ZM127.701 82.8692C126.373 82.8674 125.688 81.7186 125.69 79.9378C125.693 78.1595 126.455 76.9916 127.788 76.9934C129.104 76.9952 129.837 78.1329 129.834 79.8839C129.832 81.677 129.077 82.8711 127.701 82.8692Z" fill="#1C1C1C"/>
<path d="M117.428 71.3713C117.429 70.4818 118.315 69.8735 119.428 69.875C120.544 69.8766 121.429 70.4862 121.428 71.3767C121.427 72.2546 120.54 72.8766 119.424 72.875C118.311 72.8735 117.427 72.2502 117.428 71.3713Z" fill="#1C1C1C"/>
<path d="M122.407 86.8819L122.405 87.8792L115.617 87.8699L115.618 86.8727L117.412 86.5626C117.441 85.3554 117.456 83.8138 117.457 82.758L117.459 81.6045C117.46 80.2655 117.434 79.5111 117.38 78.5382L115.418 78.317L115.42 77.4113L120.365 75.8764L120.806 76.1272L120.719 79.5387L120.715 82.7612C120.713 83.8207 120.724 85.3697 120.749 86.5794L122.407 86.8819Z" fill="#1C1C1C"/>
<path d="M115.407 86.8711L115.405 87.8683L109.107 87.8598L109.108 86.8625L110.701 86.5546C110.729 85.3609 110.742 83.8363 110.744 82.7475L110.747 80.5223C110.75 78.4668 110.211 77.8973 108.924 77.8955C107.97 77.8942 107.06 78.2946 106.07 79.1232C106.107 79.4553 106.126 79.813 106.125 80.1987L106.122 82.7425C106.12 83.8337 106.133 85.3644 106.157 86.5606L107.68 86.8618L107.679 87.859L101.371 87.8504L101.373 86.8532L103.011 86.5454C103.038 85.3516 103.052 83.8271 103.054 82.7383L103.057 80.5424C103.059 78.565 102.575 77.8881 101.233 77.8862C100.247 77.8849 99.3323 78.3499 98.4198 79.103L98.4149 82.732C98.4135 83.7939 98.423 85.3429 98.4472 86.5526L99.9732 86.8513L99.9719 87.8485L93.5996 87.8399L93.601 86.8426L95.2676 86.5348C95.2951 85.3277 95.3089 83.7836 95.3103 82.7277L95.3121 81.451C95.3139 80.1119 95.2979 79.4809 95.2384 78.5092L93.4184 78.2882L93.4197 77.3825L97.7394 75.8467L98.1534 76.0975L98.3359 77.9861C99.5923 76.6378 101.063 75.85 102.637 75.8521C104.323 75.8544 105.396 76.5517 105.858 78.0708C107.266 76.4834 108.736 75.8605 110.296 75.8626C112.637 75.8658 113.821 77.182 113.817 80.1384L113.813 82.7517C113.812 83.843 113.822 85.3712 113.846 86.5675L115.407 86.8711Z" fill="#1C1C1C"/>
<path d="M93.8242 86.6522C93.5391 87.0349 93.3006 87.2158 92.9571 87.2154C92.492 87.2147 92.2154 86.8904 92.2165 86.065L92.2242 80.4688C92.2287 77.134 90.9718 75.8364 88.0734 75.8324C85.0157 75.8282 83.0795 77.1511 82.7746 79.1935C82.8977 79.9367 83.3986 80.3526 84.1846 80.3537C85.007 80.3548 85.602 79.8054 85.7453 78.5714L86.0406 77.1564C86.4394 77.0888 86.7766 77.07 87.0901 77.0704C88.7123 77.0726 89.273 77.7174 89.2698 80.1074L89.2688 80.8402C88.4047 81.0665 87.5281 81.3225 86.8884 81.535C83.2813 82.7308 82.4108 83.9497 82.4086 85.5811C82.4057 87.7011 83.8371 88.8266 85.7163 88.8292C87.3047 88.8314 88.1193 88.1511 89.3559 86.862C89.6363 88.0658 90.5016 88.7882 91.8305 88.79C93.0177 88.7916 93.8043 88.3556 94.4064 87.1646L93.8242 86.6522ZM87.0879 86.9554C86.095 86.954 85.3285 86.386 85.3303 85.0657C85.3316 84.0861 85.8306 83.1676 87.5139 82.4808C87.9354 82.2937 88.5776 82.076 89.2661 81.8725L89.2606 85.9131C88.1726 86.71 87.7348 86.9563 87.0879 86.9554Z" fill="#1C1C1C"/>
<path d="M82.4225 75.3102L80.6542 75.3078L80.1236 72.1874L74.914 72.1803C74.8719 74.2219 74.8665 76.3072 74.8636 78.4118L78.2632 78.4164L78.5933 76.1851L79.8976 76.1869L79.8893 82.2334L78.585 82.2316L78.2436 79.7668L74.8605 79.7622C74.8574 82.0454 74.8545 84.2181 74.8934 86.3536L77.2076 86.6124L77.2059 87.8176L69.4054 87.807L69.4071 86.6018L71.5343 86.3696C71.5791 84.2367 71.582 82.0589 71.585 79.8657L71.5865 78.7543C71.5895 76.5931 71.5925 74.4153 71.5536 72.2477L69.427 72.0096L69.4286 70.807L82.2524 70.8245L82.4225 75.3102Z" fill="#1C1C1C"/>
<path d="M63.8255 86.6123C63.5429 86.9951 63.302 87.1761 62.9611 87.1756C62.496 87.175 62.2194 86.8506 62.2205 86.0251L62.2282 80.4284C62.2327 77.0932 60.9759 75.7955 58.0778 75.7915C55.0179 75.7873 53.0844 77.1103 52.7796 79.1529C52.9026 79.8962 53.4035 80.3122 54.1894 80.3133C55.0118 80.3144 55.6067 79.7649 55.75 78.5308L56.0453 77.1156C56.444 77.048 56.7812 77.0292 57.0908 77.0296C58.7154 77.0318 59.2761 77.6767 59.2728 80.0669L59.2718 80.7959C58.4078 81.0249 57.5313 81.2821 56.8917 81.4934C53.2849 82.6894 52.4108 83.9083 52.4086 85.5399C52.4057 87.6601 53.8369 88.7858 55.7185 88.7883C57.3067 88.7905 58.1212 88.1102 59.3602 86.8235C59.6406 88.0274 60.5058 88.746 61.8282 88.7478C63.0178 88.7494 63.8044 88.3133 64.4064 87.1223L63.8255 86.6123ZM59.2662 85.872C58.177 86.6702 57.7405 86.9178 57.0924 86.9169C56.0958 86.9155 55.3332 86.3475 55.335 85.027C55.3364 84.0473 55.8353 83.1287 57.5159 82.4418C57.9399 82.2547 58.582 82.0344 59.2704 81.8309L59.2649 85.872L59.2662 85.872Z" fill="#1C1C1C"/>
<path d="M51.26 83.112L51.0036 87.9409L38.2926 87.9236L38.2943 86.7409L40.4036 86.513C40.4479 84.4061 40.4508 82.3104 40.4534 80.3976L40.4553 79.0397C40.4582 76.8961 40.4611 74.7589 40.4225 72.6543L38.3138 72.4195L38.3154 71.2393L45.9608 71.2497L45.9591 72.4299L43.7506 72.6664C43.7063 74.7784 43.7034 76.9131 43.7005 79.0428L43.6984 80.5824C43.6959 82.3754 43.6931 84.4685 43.7341 86.5806L48.7808 86.5875L49.5012 83.1096L51.26 83.112Z" fill="#1C1C1C"/>
</g>
<path d="M145.299 101.538L145.197 101.974C144.68 104.073 144.354 105.56 144.221 106.433C144.018 107.798 143.909 108.592 143.895 108.815C143.839 109.441 143.653 109.793 143.337 109.868C143.115 109.921 142.902 109.871 142.699 109.719C142.52 109.588 142.407 109.427 142.363 109.237C142.185 108.493 142.647 105.901 143.75 101.457C143.316 101.287 143.068 101.072 143.006 100.813C142.958 100.614 143.01 100.42 143.16 100.228C143.289 100.068 143.446 99.9674 143.631 99.9226C143.761 99.8913 143.941 99.8802 144.168 99.8897C145.036 96.8456 145.513 94.9252 145.597 94.1276C145.394 94.3052 145.139 94.549 144.831 94.8605C144.655 95.0302 144.489 95.1345 144.332 95.1724C144.156 95.2149 143.993 95.1671 143.841 95.0295C143.74 94.9345 143.675 94.8269 143.646 94.7053C143.548 94.2986 143.82 93.772 144.459 93.1247C144.973 92.6079 145.46 92.1622 145.918 91.7863C145.952 91.5584 145.969 91.404 145.968 91.3212C145.982 90.9707 146.027 90.7266 146.101 90.5895C146.178 90.4543 146.322 90.3607 146.535 90.3093C146.971 90.2042 147.244 90.377 147.351 90.827C147.95 90.5002 148.485 90.2347 148.956 90.03C149.427 89.8253 149.835 89.6814 150.177 89.5987C151.078 89.3829 151.915 89.5203 152.691 90.0101C153.42 90.475 153.876 91.0834 154.056 91.8349C154.369 93.14 154.098 94.5872 153.241 96.173C152.505 97.5206 151.468 98.6833 150.133 99.662C148.978 100.497 147.762 101.069 146.481 101.376C146.177 101.451 145.782 101.504 145.299 101.538ZM147.299 92.6906C147.197 93.6198 146.961 94.8389 146.586 96.3461C146.122 98.1762 145.825 99.3724 145.694 99.9346C146.225 99.8992 146.593 99.8559 146.797 99.8069C147.855 99.5532 148.994 98.859 150.214 97.7245C151.391 96.6189 152.228 95.3987 152.721 94.064C153.027 93.2505 153.114 92.5699 152.983 92.0265C152.864 91.5338 152.598 91.2067 152.182 91.0469C151.766 90.8859 151.195 90.8934 150.471 91.0667C149.923 91.1988 149.384 91.3984 148.855 91.6668C148.327 91.9348 147.807 92.2758 147.299 92.6906Z" fill="#2D74FF"/>
<path d="M154.486 101.375C155.177 100.249 156.013 99.1118 156.993 97.9614C157.346 97.5479 157.731 97.1482 158.149 96.7646C158.36 96.5771 158.497 96.4756 158.561 96.4601C158.701 96.4265 158.863 96.4879 159.047 96.6447C159.155 96.7285 159.22 96.8133 159.24 96.8997C159.277 97.0555 159.152 97.3096 158.863 97.6621C158.085 98.5896 157.738 99.2309 157.823 99.5856C157.871 99.7844 158.015 99.8542 158.257 99.7972C158.656 99.701 159.27 99.2301 160.097 98.3818C160.239 98.2378 160.366 98.1522 160.478 98.1265C160.552 98.1087 160.635 98.1248 160.726 98.1767C160.828 98.2351 160.89 98.3072 160.911 98.3934C160.974 98.6531 160.679 99.1437 160.028 99.8676C159.348 100.635 158.64 101.105 157.908 101.282C157.612 101.353 157.319 101.346 157.034 101.258C156.791 101.188 156.633 100.998 156.558 100.687C156.506 100.471 156.545 100.201 156.673 99.8775C156.056 100.538 155.393 101.575 154.681 102.989C154.28 103.854 153.924 104.886 153.613 106.084C153.496 106.533 153.279 106.796 152.963 106.871C152.62 106.953 152.411 106.843 152.338 106.541C152.268 106.247 152.348 105.396 152.58 103.987C152.922 101.893 153.403 100.219 154.024 98.964C154.407 98.1869 154.779 97.7539 155.141 97.6666C155.262 97.6377 155.382 97.6461 155.5 97.6902C155.641 97.7473 155.727 97.8417 155.758 97.971C155.789 98.1002 155.741 98.305 155.611 98.5828C155.584 98.6348 155.407 98.9845 155.081 99.6287C154.787 100.238 154.589 100.821 154.486 101.375Z" fill="#2D74FF"/>
<path d="M164.202 94.7091C164.963 94.5269 165.447 94.8672 165.654 95.7315C165.93 96.882 165.709 98.4754 164.99 100.513C164.204 102.722 163.232 103.966 162.072 104.245C161.533 104.374 161.083 104.235 160.721 103.828C160.535 103.626 160.403 103.36 160.323 103.031C160.058 101.925 160.178 100.625 160.683 99.1322C161.156 97.7475 161.827 96.5991 162.697 95.6858C163.209 95.1522 163.71 94.8264 164.202 94.7091ZM163.931 99.9588C163.657 99.8413 163.51 99.7359 163.487 99.6397C163.47 99.57 163.573 99.3441 163.796 98.9619C164.422 97.8889 164.671 97.0838 164.543 96.5464C164.526 96.478 164.486 96.4139 164.423 96.3554C164.318 96.244 164.186 96.2061 164.027 96.2443C163.731 96.3158 163.358 96.6885 162.912 97.363C162.336 98.2338 161.94 99.0824 161.727 99.9113C161.473 100.86 161.413 101.61 161.545 102.163C161.581 102.31 161.653 102.43 161.763 102.521C161.921 102.648 162.093 102.689 162.279 102.645C162.724 102.538 163.128 102.112 163.489 101.367C163.649 101.055 163.766 100.743 163.839 100.433C163.911 100.123 163.943 99.9641 163.931 99.9588Z" fill="#2D74FF"/>
<path d="M166.483 103.131L166.63 102.52L167.078 100.643C167.681 98.0382 168.087 96.4003 168.299 95.7273C168.628 94.6882 169.012 94.1158 169.448 94.0108C169.587 93.9772 169.729 93.9978 169.875 94.0727C170.013 94.1587 170.094 94.2529 170.12 94.3568C170.157 94.5126 169.987 95.0295 169.608 95.9061C169.376 96.4553 169.069 97.4396 168.682 98.8584C168.381 100.019 168.177 100.922 168.067 101.571C168.667 100.96 169.142 100.389 169.497 99.8562C169.91 99.2446 170.278 98.5111 170.603 97.6568C170.756 97.2727 170.925 97.0576 171.111 97.0128C171.214 96.9881 171.311 97.0063 171.404 97.0655C171.508 97.1315 171.574 97.2163 171.597 97.3205C171.668 97.6144 171.57 98.0631 171.302 98.6677C170.655 100.186 169.436 101.735 167.646 103.317C167.522 103.658 167.354 104.328 167.143 105.331C166.774 107.102 166.311 108.571 165.757 109.737C165.446 110.369 165.026 110.928 164.495 111.411C164.14 111.734 163.74 111.948 163.294 112.056C162.775 112.181 162.293 112.094 161.849 111.799C161.568 111.611 161.385 111.339 161.3 110.985C161.083 110.077 161.34 108.96 162.07 107.633C162.957 106.011 164.429 104.511 166.483 103.131ZM166.032 104.692C165.234 105.213 164.443 106.043 163.656 107.183C162.733 108.493 162.365 109.532 162.549 110.302C162.593 110.483 162.672 110.609 162.787 110.678C162.902 110.747 163.047 110.76 163.223 110.718C163.613 110.624 163.978 110.321 164.316 109.811C164.881 108.979 165.455 107.272 166.032 104.692ZM170.858 88.7208C171.276 88.62 171.532 88.7688 171.628 89.1666C171.716 89.5301 171.607 89.9811 171.305 90.5204C171.016 91.0377 170.692 91.3398 170.33 91.4271C170.153 91.4695 169.99 91.4446 169.84 91.352C169.711 91.264 169.626 91.1343 169.584 90.9608C169.486 90.5542 169.627 90.0591 170.008 89.4741C170.286 89.041 170.57 88.7903 170.858 88.7208Z" fill="#2D74FF"/>
<path d="M172.561 98.9139L172.617 99.147C172.663 99.337 172.754 99.4895 172.889 99.6028C173.197 99.8677 173.617 99.9354 174.146 99.8092C175.306 99.5308 176.448 98.3789 177.572 96.3535C177.772 96.0036 177.964 95.8058 178.151 95.7623C178.253 95.7376 178.358 95.7633 178.464 95.8382C178.537 95.8944 178.58 95.9524 178.594 96.0132C178.675 96.3502 178.366 97.0279 177.669 98.0457C177.124 98.8446 176.505 99.5367 175.812 100.123C175.118 100.71 174.434 101.086 173.756 101.248C173.06 101.414 172.458 101.322 171.95 100.967C171.606 100.72 171.37 100.33 171.241 99.7938C170.89 98.3329 171.285 96.7246 172.424 94.9701C173.348 93.5412 174.256 92.7205 175.146 92.5057C175.388 92.4474 175.622 92.4647 175.851 92.5557C176.135 92.6789 176.314 92.8877 176.384 93.1819C176.494 93.6405 176.401 94.2566 176.107 95.0313C175.5 96.6399 174.319 97.934 172.561 98.9139ZM172.625 97.829C173.224 97.466 173.679 97.1098 173.988 96.7618C174.526 96.1388 174.914 95.4877 175.154 94.8081C175.243 94.5667 175.268 94.365 175.228 94.2003C175.187 94.028 175.078 93.9617 174.902 94.0042C174.66 94.0625 174.358 94.3136 173.993 94.7567C173.338 95.546 172.882 96.57 172.625 97.829Z" fill="#2D74FF"/>
<path d="M182.151 90.7409C182.884 90.5656 183.336 90.8358 183.509 91.5528C183.66 92.1839 183.548 92.8824 183.173 93.6496C182.882 94.232 182.582 94.5602 182.276 94.6327C182.016 94.6953 181.853 94.5885 181.786 94.3111C181.751 94.1642 181.76 94.0387 181.814 93.9345C181.833 93.8937 181.921 93.7679 182.077 93.5561C182.208 93.369 182.327 93.1071 182.433 92.772C182.505 92.5441 182.528 92.3697 182.499 92.2481C182.465 92.11 182.365 92.0604 182.199 92.1006C182.003 92.1477 181.741 92.3611 181.411 92.7422C180.89 93.3517 180.43 94.2212 180.034 95.35C179.63 96.5265 179.497 97.4083 179.639 97.996C179.685 98.186 179.785 98.34 179.941 98.458C180.172 98.641 180.435 98.6954 180.732 98.6252C181.316 98.4843 181.927 97.9819 182.563 97.1153C183.102 96.3744 183.533 95.6578 183.858 94.9669C184.023 94.5894 184.193 94.3781 184.37 94.3369C184.472 94.3122 184.576 94.3329 184.68 94.4002C184.775 94.4685 184.833 94.547 184.853 94.6332C184.931 94.9537 184.639 95.6807 183.979 96.8182C182.926 98.6069 181.829 99.6393 180.688 99.9131C180 100.078 179.422 99.9744 178.949 99.6031C178.608 99.3288 178.383 98.9623 178.274 98.5034C178.058 97.6037 178.208 96.4672 178.721 95.0902C179.221 93.7729 179.891 92.6461 180.737 91.7117C181.235 91.1723 181.706 90.8482 182.151 90.7409Z" fill="#2D74FF"/>
<path d="M189.074 88.7501C188.681 89.7684 188.357 90.8785 188.107 92.0822C187.742 93.7972 187.652 95.0347 187.834 95.7963C187.886 96.0129 187.973 96.1648 188.099 96.2538C188.223 96.3432 188.383 96.3637 188.578 96.3166C189.043 96.2046 189.506 95.6639 189.971 94.6928C190.268 94.0917 190.519 93.5005 190.723 92.9217C190.831 92.5942 190.988 92.405 191.191 92.3572C191.312 92.3282 191.424 92.3427 191.526 92.3999C191.618 92.4607 191.674 92.5291 191.692 92.6063C191.77 92.9268 191.49 93.7474 190.855 95.0706C190.098 96.6605 189.275 97.5627 188.384 97.7762C187.911 97.8902 187.467 97.7814 187.053 97.4509C186.797 97.238 186.611 96.894 186.497 96.419C186.246 95.3724 186.277 94.0767 186.593 92.5274C186.669 92.1434 186.903 91.2048 187.302 89.7095C187.067 89.8305 186.882 89.9058 186.752 89.9371C186.557 89.9842 186.376 89.9823 186.206 89.9308C185.973 89.8583 185.834 89.7322 185.791 89.5511C185.738 89.3345 185.832 89.1296 186.07 88.9355C186.136 88.8835 186.466 88.7448 187.06 88.5199C187.274 88.4321 187.58 88.2713 187.975 88.0394C188.169 87.4163 188.521 86.55 189.03 85.4408C189.313 84.8242 189.516 84.4188 189.636 84.2251C189.806 83.9561 189.976 83.8013 190.142 83.7611C190.263 83.7321 190.399 83.7636 190.548 83.8562C190.686 83.9423 190.77 84.0415 190.796 84.153C190.851 84.3785 190.697 84.886 190.338 85.6762C190.098 86.1911 189.927 86.6024 189.825 86.9111C190.793 86.4043 191.499 86.0973 191.945 85.9911C192.455 85.8683 192.758 86.0068 192.854 86.4033C192.902 86.6022 192.848 86.7705 192.695 86.908C192.615 86.9824 192.383 87.0837 192.002 87.2118C191.842 87.2411 191.182 87.5732 190.018 88.2089C189.698 88.3853 189.383 88.5658 189.074 88.7501Z" fill="#2D74FF"/>
</g>
<defs>
<filter id="filter0_d_541_14189" x="0.953663" y="0.464649" width="272.726" height="167.631" filterUnits="userSpaceOnUse" color-interpolation-filters="sRGB">
<feFlood flood-opacity="0" result="BackgroundImageFix"/>
<feColorMatrix in="SourceAlpha" type="matrix" values="0 0 0 0 0 0 0 0 0 0 0 0 0 0 0 0 0 0 127 0" result="hardAlpha"/>
<feOffset dy="14"/>
<feGaussianBlur stdDeviation="18.65"/>
<feComposite in2="hardAlpha" operator="out"/>
<feColorMatrix type="matrix" values="0 0 0 0 0 0 0 0 0 0 0 0 0 0 0 0 0 0 0.1 0"/>
<feBlend mode="normal" in2="BackgroundImageFix" result="effect1_dropShadow_541_14189"/>
<feBlend mode="normal" in="SourceGraphic" in2="effect1_dropShadow_541_14189" result="shape"/>
</filter>
<clipPath id="clip0_541_14189">
<rect width="198" height="90" fill="white" transform="translate(38.38 23.7646) rotate(0.0780288)"/>
</clipPath>
</defs>
</svg>