<svg xmlns="http://www.w3.org/2000/svg" width="198" height="90" viewBox="0 0 198 90" fill="none">
  <path d="M86.1127 37.2378V42H79.5446V37.3036C79.5446 32.3913 77.5372 27.9444 74.2919 24.7266C71.0467 21.5076 66.565 19.5163 61.6127 19.5163C51.7093 19.5163 43.6807 27.4801 43.6807 37.3036V42H37.1127V37.2378C37.1114 23.8514 48.0511 13 61.5463 13H61.6777C75.1743 13 86.1127 23.8514 86.1127 37.2378Z" fill="#1C1C1C"/>
  <path d="M73.1127 37.2017V41.9988H66.7319V37.2659C66.7319 35.9062 66.1671 34.6761 65.2526 33.7866C64.3395 32.8957 63.0768 32.3455 61.6811 32.3455C58.8909 32.3455 56.6289 34.5478 56.6289 37.2671V42H50.1127V37.203C50.1127 31.0167 55.2611 26 61.6127 26C64.7878 26 67.6628 27.2535 69.7437 29.2819C71.8246 31.3078 73.1127 34.1098 73.1127 37.2017Z" fill="#FFD027"/>
  <path d="M122.436 62.3684C122.153 62.7442 121.912 62.922 121.571 62.922C121.105 62.922 120.827 62.6042 120.827 61.7947V56.306C120.827 53.0352 119.567 51.7642 116.664 51.7642C113.6 51.7642 111.665 53.0642 111.363 55.0677C111.487 55.7966 111.989 56.2038 112.777 56.2038C113.6 56.2038 114.195 55.6642 114.337 54.4537L114.631 53.0654C115.03 52.9986 115.368 52.9797 115.681 52.9797C117.306 52.9797 117.868 53.6114 117.868 55.9554V56.6704C117.003 56.8961 116.126 57.1495 115.486 57.3576C111.875 58.5353 111.005 59.7319 111.005 61.332C111.005 63.4112 112.438 64.5132 114.322 64.5132C115.912 64.5132 116.727 63.8449 117.966 62.5815C118.249 63.7617 119.116 64.4653 120.441 64.4653C121.632 64.4653 122.419 64.0366 123.021 62.8677L122.436 62.3684ZM115.694 62.6748C114.696 62.6748 113.931 62.1188 113.931 60.8238C113.931 59.863 114.43 58.9614 116.112 58.2856C116.536 58.1015 117.179 57.8846 117.868 57.6841V61.6472C116.78 62.4327 116.342 62.6748 115.694 62.6748Z" fill="#1C1C1C"/>
  <path d="M105.164 47.6222C105.164 46.5567 105.997 45.8267 107.053 45.8267C108.109 45.8267 108.946 46.5555 108.946 47.6222C108.946 48.6738 108.109 49.4203 107.053 49.4203C105.997 49.4203 105.164 48.6751 105.164 47.6222Z" fill="#1C1C1C"/>
  <path d="M110.131 63.1288V64.1589H103.922V63.1288L105.56 62.806C105.586 61.559 105.597 59.9664 105.597 58.8757V57.6842C105.597 56.301 105.572 55.5217 105.522 54.5168L103.726 54.2911V53.3555L108.252 51.7629L108.656 52.0214L108.578 55.5457V58.8745C108.578 59.9689 108.59 61.569 108.615 62.8186L110.131 63.1288Z" fill="#1C1C1C"/>
  <path d="M103.25 63.129V64.1591H96.7437V63.129L98.4485 62.8011C98.4761 61.4936 98.4899 60.1847 98.4899 58.8772V48.0787L96.6809 47.8278V46.8569L101.228 45.7246L101.605 45.9528L101.505 49.496V58.8759C101.505 60.1898 101.519 61.5011 101.547 62.8112L103.25 63.129Z" fill="#1C1C1C"/>
  <path d="M96.1102 52.247L95.7335 52L92.9521 53.0685C92.137 52.3946 90.9538 52.0273 89.463 52.0273C86.4445 52.0273 84.6598 53.5971 84.6598 56.0567C84.6598 57.6153 85.344 58.788 86.5952 59.4532C85.3786 60.5601 84.8154 61.4747 84.8154 62.4228C84.8154 63.3262 85.3008 64 86.3482 64.3648C84.7426 65.1317 84.1127 65.9868 84.1127 67.0441C84.1127 68.6908 85.4836 70 89.3012 70C93.6709 70 95.9348 67.8904 95.9348 65.5624C95.9348 63.4862 94.654 62.1684 91.4478 62.1684H88.386C87.2819 62.1684 86.9571 61.7688 86.9571 61.1433C86.9571 60.6259 87.1016 60.2263 87.4153 59.7845C88.0069 59.9657 88.6886 60.0612 89.4494 60.0612C92.4544 60.0612 94.2391 58.4802 94.2391 56.0567C94.2391 55.2538 94.0624 54.5526 93.724 53.9719H96.1127V52.247H96.1102ZM88.5935 64.8091H91.3391C92.9015 64.8091 93.482 65.5785 93.482 66.4906C93.482 67.7291 92.1296 68.7044 89.5371 68.7044C87.4548 68.7044 86.3062 68.0716 86.3062 66.5191C86.3062 65.8068 86.5025 65.2968 86.9793 64.6701C87.4375 64.7706 87.9945 64.8091 88.5935 64.8091ZM89.4013 58.9828C88.0736 58.9828 87.3869 57.835 87.3869 56.0542C87.3869 54.2759 88.1477 53.1069 89.4803 53.1069C90.7969 53.1069 91.5305 54.2436 91.5305 55.9946C91.5305 57.7878 90.7771 58.9828 89.4013 58.9828Z" fill="#1C1C1C"/>
  <path d="M79.1127 47.4989C79.1127 46.6095 79.9982 46 81.1107 46C82.2272 46 83.1127 46.6084 83.1127 47.4989C83.1127 48.3768 82.2272 49 81.1107 49C79.9982 49 79.1127 48.3779 79.1127 47.4989Z" fill="#1C1C1C"/>
  <path d="M84.1127 63.0027V64H77.324V63.0027L79.1176 62.6903C79.145 61.4831 79.1574 59.9414 79.1574 58.8856V57.7321C79.1574 56.393 79.1299 55.6387 79.075 54.6659L77.1127 54.4474V53.5417L82.0556 52L82.4975 52.2502L82.4152 55.6619V58.8843C82.4152 59.9439 82.4275 61.4928 82.455 62.7025L84.1127 63.0027Z" fill="#1C1C1C"/>
  <path d="M77.1127 63.0015V63.9988H70.8142V63.0015L72.4066 62.6915C72.4325 61.4977 72.4442 59.9731 72.4442 58.8843V56.6591C72.4442 54.6036 71.9043 54.0348 70.6174 54.0348C69.6633 54.0348 68.7544 54.4364 67.7653 55.2664C67.8028 55.5984 67.8223 55.9561 67.8223 56.3418V58.8856C67.8223 59.9768 67.8365 61.5075 67.8624 62.7037L69.3862 63.0027V64H63.0787V63.0027L64.7164 62.6927C64.7423 61.4989 64.7539 59.9744 64.7539 58.8856V56.6897C64.7539 54.7122 64.2684 54.036 62.9272 54.036C61.9407 54.036 61.0266 54.5023 60.1152 55.2566V58.8856C60.1152 59.9475 60.1269 61.4965 60.1527 62.7061L61.6791 63.0027V64H55.3069V63.0027L56.9731 62.6927C56.999 61.4855 57.0106 59.9414 57.0106 58.8856V57.6088C57.0106 56.2698 56.9938 55.6387 56.9329 54.6671L55.1127 54.4486V53.5429L59.4303 52.0012L59.8446 52.2514L60.0298 54.1398C61.2843 52.7897 62.7537 52 64.328 52C66.0136 52 67.0882 52.6958 67.5517 54.2142C68.9577 52.625 70.4271 52 71.9872 52C74.3279 52 75.5138 53.3146 75.5138 56.271V58.8843C75.5138 59.9756 75.5254 61.5038 75.5513 62.7L77.1127 63.0015Z" fill="#1C1C1C"/>
  <path d="M55.5297 62.8119C55.2451 63.195 55.0069 63.3763 54.6634 63.3763C54.1983 63.3763 53.9213 63.0523 53.9213 62.227V56.6307C53.9213 53.2959 52.6626 52 49.7642 52C46.7065 52 44.7721 53.3255 44.47 55.3683C44.5941 56.1114 45.0955 56.5266 45.8816 56.5266C46.704 56.5266 47.2982 55.9764 47.4399 54.7422L47.7332 53.3267C48.1319 53.2586 48.4691 53.2393 48.7825 53.2393C50.4048 53.2393 50.9664 53.8834 50.9664 56.2733V57.0061C50.1026 57.2337 49.2263 57.4908 48.587 57.7042C44.9815 58.905 44.1127 60.125 44.1127 61.7564C44.1127 63.8764 45.5456 65 47.4248 65C49.0132 65 49.8268 64.3186 51.0617 63.0279C51.3438 64.2312 52.21 64.9524 53.5389 64.9524C54.7261 64.9524 55.5122 64.5153 56.1127 63.3236L55.5297 62.8119ZM48.7938 63.1243C47.8009 63.1243 47.0337 62.5574 47.0337 61.237C47.0337 60.2574 47.5314 59.3382 49.2138 58.6491C49.635 58.4614 50.2769 58.2429 50.9652 58.0385V62.0791C49.8782 62.8775 49.4407 63.1243 48.7938 63.1243Z" fill="#1C1C1C"/>
  <path d="M44.1127 51.4855H42.3444L41.8095 48.3658H36.5999C36.5606 50.4075 36.5581 52.4928 36.5581 54.5974H39.9576L40.2847 52.3656H41.589V58.4121H40.2847L39.9399 55.9478H36.5568C36.5568 58.231 36.5568 60.4037 36.5986 62.5391L38.9132 62.7948V64H31.1127V62.7948L33.2396 62.5597C33.2815 60.4268 33.2814 58.249 33.2814 56.0557V54.9443C33.2814 52.7832 33.2815 50.6053 33.2396 48.4378L31.1127 48.2026V47H43.9365L44.1127 51.4855Z" fill="#1C1C1C"/>
  <path d="M25.531 62.813C25.249 63.1961 25.0083 63.3774 24.6674 63.3774C24.2023 63.3774 23.9253 63.0534 23.9253 62.228V56.6312C23.9253 53.296 22.6667 52 19.7686 52C16.7087 52 14.777 53.3256 14.4749 55.3686C14.599 56.1118 15.1004 56.5271 15.8864 56.5271C16.7087 56.5271 17.3029 55.9768 17.4445 54.7425L17.7379 53.3269C18.1365 53.2587 18.4737 53.2394 18.7833 53.2394C20.4079 53.2394 20.9695 53.8836 20.9695 56.2738V57.0028C20.1058 57.2329 19.2296 57.4913 18.5903 57.7035C14.9851 58.9044 14.1127 60.1245 14.1127 61.7561C14.1127 63.8763 15.5454 65 17.427 65C19.0152 65 19.8287 64.3186 21.066 63.0303C21.348 64.2337 22.2142 64.9511 23.5367 64.9511C24.7263 64.9511 25.5122 64.514 26.1127 63.3221L25.531 62.813ZM20.9707 62.0788C19.8826 62.8785 19.4464 63.1267 18.7983 63.1267C17.8018 63.1267 17.0384 62.5597 17.0384 61.2392C17.0384 60.2595 17.536 59.3402 19.2158 58.6511C19.6395 58.4634 20.2813 58.2422 20.9695 58.0378V62.0788H20.9707Z" fill="#1C1C1C"/>
  <path d="M12.9608 59.3297L12.7109 64.159H0V62.9762L2.10907 62.7455C2.1505 60.6385 2.1505 58.5429 2.1505 56.6301V55.2721C2.1505 53.1285 2.1505 50.9913 2.10907 48.8868L0 48.6548V47.4746H7.64539V48.6548L5.43714 48.8944C5.39572 51.0064 5.39572 53.1411 5.39572 55.2708V56.8104C5.39572 58.6034 5.39572 60.6965 5.43965 62.8085H10.4864L11.2019 59.3297H12.9608Z" fill="#1C1C1C"/>
  <path d="M113.563 66.9667C113.719 66.9323 113.889 66.9819 114.07 67.115C114.229 67.2323 114.328 67.3795 114.367 67.554C114.421 67.7971 114.362 68.1568 114.19 68.6315C114.109 68.8631 113.78 69.6445 113.203 70.9728C110.496 77.1529 109.059 82.5068 108.893 87.0357C108.917 87.7539 108.731 88.1557 108.331 88.2442C108.116 88.2919 107.904 88.2322 107.693 88.0639C107.497 87.9133 107.373 87.7218 107.321 87.4892C107.214 87.0041 107.249 86.0534 107.429 84.6384C107.833 81.3711 108.955 77.3238 110.795 72.4976C111.544 70.5195 112.181 69.0184 112.702 67.9976C113.042 67.3623 113.328 67.0188 113.563 66.9667Z" fill="#FCBD28"/>
  <path d="M114.063 81.0988C114.164 80.9545 114.261 80.811 114.352 80.669C115.953 78.2374 117.099 76.9464 117.791 76.7933C118.171 76.7091 118.407 76.8772 118.499 77.2935C118.564 77.5856 118.469 77.9672 118.215 78.4407C116.83 81.0184 116.32 83.1321 116.684 84.783C116.803 85.317 117.061 85.795 117.46 86.2167C117.645 86.41 117.753 86.5706 117.781 86.6961C117.806 86.8124 117.773 86.9363 117.679 87.0693C117.583 87.2335 117.446 87.3345 117.27 87.3734C116.871 87.4619 116.478 87.2827 116.094 86.8381C115.727 86.4204 115.468 85.8705 115.317 85.1912C115.028 83.8799 115.205 82.3183 115.849 80.5051C114.708 81.6423 113.806 83.4103 113.139 85.8096C112.96 86.3886 112.704 86.7156 112.373 86.7876C112.206 86.8244 112.058 86.7964 111.925 86.7024C111.759 86.5964 111.651 86.4371 111.604 86.223C111.488 85.6984 111.785 84.1919 112.493 81.7031C112.872 80.3562 113.185 79.3704 113.437 78.7448C113.689 78.1288 113.947 77.7917 114.211 77.7332C114.337 77.7052 114.472 77.7364 114.615 77.828C114.781 77.9341 114.884 78.0748 114.923 78.2493C114.97 78.4634 114.895 78.8002 114.701 79.2606C114.422 79.9448 114.211 80.5574 114.063 81.0988Z" fill="#FCBD28"/>
  <path d="M123.789 80.0246C123.419 81.1756 123.075 82.0463 122.754 82.6372C121.98 84.0911 121.248 84.8953 120.556 85.0471C120.136 85.14 119.765 84.9824 119.44 84.5748C119.217 84.308 119.069 84.0093 118.996 83.6789C118.854 83.038 118.928 82.0482 119.216 80.7117C119.481 79.5439 119.715 78.6158 119.922 77.9282C120.078 77.4359 120.167 77.1155 120.185 76.9686C120.245 76.6809 120.303 76.4585 120.36 76.3031C120.442 76.0716 120.595 75.9309 120.819 75.8812C120.937 75.8552 121.049 75.8816 121.159 75.9585C121.282 76.0532 121.361 76.1785 121.394 76.3348C121.491 76.7722 121.311 77.8352 120.855 79.5251C120.395 81.1952 120.218 82.2741 120.326 82.7591C120.395 83.0697 120.551 83.1987 120.795 83.1447C121.214 83.0518 121.689 82.3768 122.219 81.1198C122.453 80.559 122.673 79.8643 122.878 79.0341C122.815 78.793 122.769 78.6105 122.741 78.4836C122.58 77.7554 122.577 77.0933 122.733 76.4985C122.933 75.732 123.329 75.2824 123.924 75.1506C124.264 75.0752 124.481 75.2421 124.57 75.6494C124.714 76.2997 124.583 77.3325 124.179 78.746C124.383 78.7411 124.543 78.7264 124.66 78.7004C124.982 78.6291 125.357 78.3326 125.784 77.811C126.12 77.3914 126.352 77.1665 126.479 77.1385C126.586 77.1148 126.712 77.1534 126.857 77.2543C126.968 77.342 127.037 77.4392 127.059 77.5465C127.137 77.8967 126.98 78.3433 126.588 78.8876C126.132 79.5072 125.542 79.897 124.822 80.0565C124.541 80.1174 124.195 80.108 123.789 80.0246Z" fill="#FCBD28"/>
  <path d="M127.188 80.5128L127.245 80.7745C127.293 80.9886 127.386 81.1606 127.528 81.2929C127.85 81.5986 128.29 81.6898 128.845 81.5681C130.065 81.2994 131.268 80.0556 132.455 77.8389C132.667 77.4566 132.87 77.2438 133.066 77.2005C133.172 77.1768 133.282 77.2094 133.394 77.2956C133.469 77.3607 133.514 77.4269 133.53 77.4957C133.614 77.875 133.287 78.6183 132.55 79.7285C131.975 80.5991 131.323 81.3493 130.592 81.9785C129.862 82.6087 129.141 83.0014 128.428 83.1579C127.697 83.3185 127.066 83.1935 126.535 82.7799C126.175 82.4922 125.929 82.0477 125.797 81.4448C125.434 79.8031 125.856 78.0239 127.059 76.1088C128.034 74.5494 128.99 73.6666 129.926 73.4594C130.179 73.4033 130.426 73.4304 130.665 73.5411C130.963 73.6885 131.149 73.9287 131.222 74.2591C131.337 74.7745 131.236 75.4581 130.923 76.3122C130.281 78.0834 129.036 79.4837 127.188 80.5128ZM127.259 79.3046C127.89 78.921 128.369 78.5403 128.695 78.1631C129.261 77.4887 129.672 76.7765 129.927 76.0268C130.022 75.7618 130.049 75.5366 130.008 75.3516C129.965 75.1573 129.851 75.08 129.667 75.1209C129.413 75.177 129.094 75.446 128.709 75.9278C128.017 76.784 127.534 77.9099 127.259 79.3046Z" fill="#FCBD28"/>
  <path d="M138.564 70.7918C139.168 70.658 139.646 70.6658 139.995 70.813C140.345 70.9602 140.567 71.252 140.664 71.6894C140.791 72.263 140.699 72.8631 140.387 73.4923C140.088 74.088 139.565 74.6309 138.814 75.123C138.402 75.3876 138.045 75.5528 137.742 75.6197C137.333 75.7103 137.089 75.5759 137.01 75.2164C136.956 74.9732 137.032 74.7635 137.239 74.5846C137.291 74.5427 137.605 74.3871 138.179 74.1171C138.522 73.9594 138.817 73.7166 139.061 73.388C139.276 73.1062 139.354 72.8338 139.296 72.5721C139.251 72.3686 139.159 72.2308 139.02 72.159C138.881 72.0885 138.695 72.0785 138.461 72.1289C137.895 72.2542 137.322 72.6198 136.74 73.2268C136.064 73.916 135.805 74.6152 135.961 75.3239C136.072 75.8288 136.47 76.4035 137.154 77.0479C137.91 77.7467 138.353 78.3835 138.479 78.956C138.667 79.8114 138.435 80.5656 137.781 81.2179C137.379 81.623 136.881 81.8901 136.287 82.0216C135.351 82.2275 134.566 82.0493 133.931 81.4871C133.485 81.0867 133.19 80.5601 133.046 79.9099C132.879 79.1523 132.934 78.4733 133.21 77.8714C133.389 77.4754 133.615 77.248 133.888 77.1875C134.132 77.1335 134.275 77.2044 134.318 77.3987C134.335 77.4766 134.317 77.6026 134.263 77.7768C134.131 78.2441 134.126 78.7596 134.251 79.3226C134.357 79.7983 134.615 80.164 135.03 80.4187C135.396 80.6439 135.774 80.7127 136.165 80.6262C136.545 80.542 136.814 80.3507 136.973 80.0507C137.101 79.799 137.129 79.5072 137.056 79.1768C136.966 78.7684 136.617 78.2912 136.004 77.7434C135.163 76.991 134.663 76.2505 134.501 75.5223C134.288 74.5507 134.629 73.5738 135.527 72.5916C136.401 71.6465 137.414 71.045 138.564 70.7918Z" fill="#FCBD28"/>
  <path d="M143.99 69.9019C143.573 71.0231 143.23 72.2497 142.962 73.5819C142.573 75.4815 142.472 76.8584 142.662 77.7134C142.715 77.9566 142.806 78.1292 142.937 78.2333C143.068 78.3374 143.235 78.3669 143.44 78.3216C143.927 78.2138 144.417 77.6269 144.907 76.5616C145.222 75.9013 145.488 75.2518 145.705 74.6131C145.819 74.2523 145.984 74.048 146.199 74.0004C146.326 73.9723 146.442 73.9923 146.55 74.0599C146.647 74.1299 146.706 74.2083 146.724 74.2972C146.804 74.6567 146.508 75.5625 145.835 77.0146C145.035 78.7601 144.166 79.7359 143.23 79.9418C142.732 80.0519 142.268 79.915 141.835 79.5311C141.566 79.2843 141.373 78.8945 141.255 78.3606C140.996 77.1854 141.034 75.7405 141.373 74.0254C141.453 73.6 141.704 72.5613 142.127 70.9092C141.878 71.0351 141.687 71.1136 141.55 71.144C141.345 71.1893 141.154 71.1804 140.976 71.1171C140.731 71.0286 140.586 70.8818 140.543 70.6779C140.489 70.4348 140.587 70.2092 140.838 70.001C140.908 69.9454 141.255 69.8019 141.879 69.5737C142.104 69.4837 142.425 69.3155 142.841 69.0707C143.047 68.3831 143.42 67.4298 143.959 66.2112C144.26 65.5331 144.473 65.0893 144.601 64.8781C144.782 64.5842 144.959 64.4173 145.135 64.3784C145.262 64.3504 145.403 64.391 145.56 64.4991C145.706 64.6 145.792 64.7127 145.82 64.8396C145.876 65.092 145.712 65.6523 145.331 66.5213C145.077 67.0864 144.897 67.5396 144.788 67.8785C145.805 67.3481 146.549 67.0322 147.017 66.9285C147.553 66.8098 147.871 66.9752 147.97 67.4219C148.019 67.6452 147.962 67.8312 147.801 67.9791C147.716 68.0589 147.474 68.1639 147.073 68.2928C146.905 68.3204 146.209 68.6672 144.987 69.3331C144.647 69.5179 144.315 69.7078 143.99 69.9019Z" fill="#FCBD28"/>
</svg>