<svg width="125" height="58" viewBox="0 0 125 58" fill="none" xmlns="http://www.w3.org/2000/svg">
<g clip-path="url(#clip0_428_38)">
<path d="M87.3643 25.1068V29.9415H80.7235V25.1736C80.7235 20.1865 78.6938 15.6719 75.4127 12.4051C72.1315 9.13709 67.6001 7.11551 62.5929 7.11551C52.5799 7.11551 44.4623 15.2006 44.4623 25.1736V29.9415H37.8215V25.1068C37.8203 11.5166 48.8811 0.5 62.5259 0.5H62.6587C76.3048 0.5 87.3643 11.5166 87.3643 25.1068Z" fill="#202041"/>
<path d="M74.0829 25.04V29.9402H67.7078V25.1056C67.7078 23.7167 67.1434 22.4601 66.2298 21.5514C65.3175 20.6414 64.0559 20.0793 62.6614 20.0793C59.8737 20.0793 57.6137 22.329 57.6137 25.1068V29.9415H51.1033V25.0413C51.1033 18.722 56.2471 13.5974 62.5931 13.5974C65.7654 13.5974 68.6379 14.8779 70.7169 16.9499C72.796 19.0194 74.0829 21.8816 74.0829 25.04Z" fill="#202041" stroke="#202041" stroke-width="0.7873" stroke-miterlimit="10"/>
<path d="M123.91 49.846C123.626 50.2216 123.383 50.3993 123.038 50.3993C122.569 50.3993 122.289 50.0817 122.289 49.2725V43.7863C122.289 40.517 121.019 39.2465 118.093 39.2465C115.004 39.2465 113.055 40.5459 112.75 42.5486C112.875 43.2771 113.381 43.6842 114.174 43.6842C115.004 43.6842 115.604 43.1448 115.747 41.9348L116.043 40.5472C116.446 40.4804 116.786 40.4615 117.103 40.4615C118.74 40.4615 119.307 41.0929 119.307 43.4359V44.1505C118.435 44.3761 117.55 44.6294 116.905 44.8374C113.266 46.0145 112.389 47.2106 112.389 48.81C112.389 50.8883 113.833 51.9898 115.732 51.9898C117.335 51.9898 118.157 51.3218 119.406 50.059C119.69 51.2386 120.565 51.9419 121.9 51.9419C123.101 51.9419 123.894 51.5134 124.5 50.3451L123.91 49.846ZM117.115 50.1522C116.109 50.1522 115.339 49.5964 115.339 48.3021C115.339 47.3417 115.841 46.4405 117.537 45.765C117.964 45.581 118.612 45.3642 119.307 45.1638V49.1251C118.21 49.9102 117.768 50.1522 117.115 50.1522Z" fill="#202041"/>
<path d="M106.501 35.1063C106.501 34.0413 107.341 33.3116 108.406 33.3116C109.47 33.3116 110.314 34.0401 110.314 35.1063C110.314 36.1575 109.47 36.9036 108.406 36.9036C107.341 36.9036 106.501 36.1587 106.501 35.1063Z" fill="#202041"/>
<path d="M111.508 50.606V51.6357H105.25V50.606L106.901 50.2833C106.926 49.0368 106.938 47.445 106.938 46.3548V45.1638C106.938 43.7812 106.912 43.0023 106.862 41.9979L105.052 41.7723V40.8371L109.614 39.2453L110.021 39.5036L109.943 43.0263V46.3536C109.943 47.4476 109.954 49.0469 109.98 50.2959L111.508 50.606Z" fill="#202041"/>
<path d="M104.573 50.606V51.6357H98.014V50.606L99.7324 50.2783C99.7602 48.9713 99.7741 47.6631 99.7741 46.3561V35.5626L97.9507 35.3118V34.3413L102.534 33.2095L102.914 33.4376L102.814 36.9792V46.3548C102.814 47.6681 102.828 48.9789 102.855 50.2884L104.573 50.606Z" fill="#202041"/>
<path d="M97.847 39.4696L97.4611 39.2188L94.6114 40.304C93.7762 39.6196 92.564 39.2465 91.0366 39.2465C87.944 39.2465 86.1155 40.8409 86.1155 43.3389C86.1155 44.9218 86.8165 46.1129 88.0984 46.7884C86.852 47.9126 86.2749 48.8415 86.2749 49.8044C86.2749 50.7219 86.7722 51.4063 87.8453 51.7768C86.2003 52.5557 85.5549 53.4241 85.5549 54.4979C85.5549 56.1703 86.9595 57.5 90.8709 57.5C95.3478 57.5 97.6673 55.3574 97.6673 52.993C97.6673 50.8845 96.3551 49.546 93.0701 49.546H89.9332C88.8019 49.546 88.4691 49.1402 88.4691 48.505C88.4691 47.9794 88.6172 47.5736 88.9386 47.1249C89.5447 47.3089 90.2432 47.406 91.0227 47.406C94.1014 47.406 95.9299 45.8003 95.9299 43.3389C95.9299 42.5234 95.749 41.8113 95.4023 41.2215H97.8495V39.4696H97.847ZM90.1458 52.228H92.9588C94.5595 52.228 95.1542 53.0094 95.1542 53.9358C95.1542 55.1936 93.7686 56.1842 91.1126 56.1842C88.9791 56.1842 87.8023 55.5414 87.8023 53.9648C87.8023 53.2413 88.0035 52.7233 88.4919 52.0869C88.9614 52.1889 89.5321 52.228 90.1458 52.228ZM90.9734 46.3107C89.6131 46.3107 88.9095 45.1449 88.9095 43.3363C88.9095 41.5303 89.689 40.343 91.0543 40.343C92.4033 40.343 93.1549 41.4975 93.1549 43.2758C93.1549 45.097 92.383 46.3107 90.9734 46.3107Z" fill="#202041"/>
<path d="M79.9758 35.1063C79.9758 34.0413 80.8198 33.3116 81.8802 33.3116C82.9444 33.3116 83.7885 34.0401 83.7885 35.1063C83.7885 36.1575 82.9444 36.9036 81.8802 36.9036C80.8198 36.9036 79.9758 36.1587 79.9758 35.1063Z" fill="#202041"/>
<path d="M84.9841 50.606V51.6357H78.7242V50.606L80.378 50.2833C80.4033 49.0368 80.4147 47.445 80.4147 46.3548V45.1638C80.4147 43.7812 80.3894 43.0023 80.3388 41.9979L78.5293 41.7723V40.8371L83.0872 39.2453L83.4947 39.5036L83.4188 43.0263V46.3536C83.4188 47.4476 83.4302 49.0469 83.4555 50.2959L84.9841 50.606Z" fill="#202041"/>
<path d="M78.0346 50.606V51.6357H71.8785V50.606L73.4349 50.2858C73.4602 49.0532 73.4716 47.4791 73.4716 46.3548V44.0572C73.4716 41.9348 72.9439 41.3475 71.6861 41.3475C70.7535 41.3475 69.8652 41.7622 68.8985 42.6192C68.9352 42.962 68.9541 43.3313 68.9541 43.7296V46.3561C68.9541 47.4828 68.9681 49.0633 68.9934 50.2984L70.4827 50.6072V51.6369H64.3177V50.6072L65.9184 50.2871C65.9438 49.0545 65.9551 47.4803 65.9551 46.3561V44.0888C65.9551 42.047 65.4806 41.3488 64.1697 41.3488C63.2054 41.3488 62.3121 41.8302 61.4212 42.6091V46.3561C61.4212 47.4526 61.4326 49.052 61.4579 50.301L62.9498 50.6072V51.6369H56.7215V50.6072L58.3501 50.2871C58.3754 49.0406 58.3868 47.4463 58.3868 46.3561V45.0378C58.3868 43.6552 58.3704 43.0036 58.3109 42.0004L56.5317 41.7748V40.8396L60.7518 39.2478L61.1568 39.5062L61.3377 41.4559C62.5639 40.062 64.0001 39.2465 65.5388 39.2465C67.1864 39.2465 68.2367 39.9649 68.6897 41.5328C70.0639 39.8918 71.5001 39.2465 73.0249 39.2465C75.3128 39.2465 76.4719 40.6039 76.4719 43.6565V46.3548C76.4719 47.4816 76.4832 49.0595 76.5085 50.2947L78.0346 50.606Z" fill="#202041"/>
<path d="M56.0523 49.846C55.765 50.2216 55.5246 50.3993 55.1779 50.3993C54.7084 50.3993 54.4288 50.0817 54.4288 49.2725V43.7863C54.4288 40.517 53.1583 39.2465 50.2327 39.2465C47.1464 39.2465 45.1939 40.5459 44.889 42.5486C45.0142 43.2771 45.5204 43.6842 46.3138 43.6842C47.1439 43.6842 47.7437 43.1448 47.8867 41.9348L48.1828 40.5472C48.5852 40.4804 48.9256 40.4615 49.2419 40.4615C50.8793 40.4615 51.4462 41.0929 51.4462 43.4359V44.1543C50.5744 44.3774 49.6899 44.6294 49.0445 44.8387C45.4052 46.0158 44.5283 47.2119 44.5283 48.8112C44.5283 50.8895 45.9747 51.9911 47.8715 51.9911C49.4748 51.9911 50.296 51.3231 51.5424 50.0577C51.8271 51.2374 52.7015 51.9444 54.0428 51.9444C55.2412 51.9444 56.0346 51.5159 56.6407 50.3476L56.0523 49.846ZM49.2533 50.1522C48.2511 50.1522 47.4767 49.5964 47.4767 48.3021C47.4767 47.3417 47.9791 46.4405 49.6772 45.765C50.1024 45.581 50.7503 45.3667 51.445 45.1663V49.1276C50.3479 49.9102 49.9063 50.1522 49.2533 50.1522Z" fill="#202041"/>
<path d="M44.8483 39.3612H43.083L42.549 36.3011H37.3483C37.309 38.3038 37.3065 40.3493 37.3065 42.4138H40.7003L41.0268 40.2246H42.3289V46.1557H41.0268L40.6826 43.7384H37.3052C37.3052 45.978 37.3052 48.1092 37.347 50.2039L39.6576 50.4547V51.6369H31.8704V50.4547L33.9937 50.2241C34.0355 48.1319 34.0355 45.9956 34.0355 43.8442V42.7541C34.0355 40.6342 34.0355 38.4979 33.9937 36.3717L31.8704 36.1411V34.9614H44.6724L44.8483 39.3612Z" fill="#202041"/>
<path d="M26.1193 49.846C25.8346 50.2216 25.5916 50.3993 25.2474 50.3993C24.778 50.3993 24.4983 50.0817 24.4983 49.2725V43.7863C24.4983 40.517 23.2278 39.2465 20.3022 39.2465C17.2134 39.2465 15.2634 40.5459 14.9585 42.5486C15.0837 43.2771 15.5899 43.6842 16.3833 43.6842C17.2134 43.6842 17.8132 43.1448 17.9562 41.9348L18.2523 40.5472C18.6547 40.4804 18.9951 40.4615 19.3076 40.4615C20.9476 40.4615 21.5145 41.0929 21.5145 43.4359V44.1505C20.6426 44.3761 19.7581 44.6294 19.1128 44.8374C15.4735 46.0145 14.5928 47.2106 14.5928 48.81C14.5928 50.8883 16.0391 51.9898 17.9385 51.9898C19.5417 51.9898 20.363 51.3218 21.6119 50.059C21.8966 51.2386 22.771 51.9419 24.106 51.9419C25.3069 51.9419 26.1003 51.5134 26.7064 50.3451L26.1193 49.846ZM21.5158 49.1263C20.4174 49.9102 19.977 50.1535 19.3228 50.1535C18.3168 50.1535 17.5462 49.5977 17.5462 48.3033C17.5462 47.3429 18.0486 46.4418 19.7442 45.7663C20.1719 45.5823 20.8198 45.3655 21.5145 45.1651V49.1263H21.5158Z" fill="#202041"/>
<path d="M13.564 46.8086L13.3121 51.6357H0.5V50.4535L2.62587 50.2228C2.66762 48.1168 2.66762 46.0221 2.66762 44.1102V42.7528C2.66762 40.6102 2.66762 38.474 2.62587 36.3704L0.5 36.1385V34.9589H8.20626V36.1385L5.98043 36.378C5.93867 38.4891 5.93867 40.6228 5.93867 42.7515V44.2904C5.93867 46.0826 5.93867 48.1748 5.98296 50.2858H11.0699L11.7911 46.8086H13.564Z" fill="#202041"/>
</g>
<defs>
<clipPath id="clip0_428_38">
<rect width="124" height="57" fill="white" transform="translate(0.5 0.5)"/>
</clipPath>
</defs>
</svg>
