<svg width="58" height="58" viewBox="0 0 58 58" fill="none" xmlns="http://www.w3.org/2000/svg">
<ellipse cx="29.4341" cy="29" rx="28.478" ry="29" fill="#EFEFEF"/>
<path fill-rule="evenodd" clip-rule="evenodd" d="M37.5178 27.4798C37.986 27.9572 38.249 28.6044 38.249 29.2791C38.249 29.9538 37.986 30.6009 37.5178 31.0783L28.09 40.6824C27.6209 41.1598 26.9849 41.4279 26.3217 41.4277C25.9933 41.4277 25.6682 41.3617 25.3648 41.2337C25.0615 41.1056 24.7859 40.918 24.5537 40.6815C24.3216 40.445 24.1375 40.1642 24.0119 39.8553C23.8863 39.5463 23.8217 39.2152 23.8218 38.8808C23.8218 38.5464 23.8866 38.2153 24.0123 37.9064C24.1381 37.5975 24.3223 37.3168 24.5546 37.0804L32.2155 29.2791L24.5546 21.4777C24.3156 21.243 24.125 20.9621 23.9939 20.6515C23.8627 20.341 23.7936 20.0069 23.7905 19.6688C23.7875 19.3308 23.8506 18.9954 23.9762 18.6825C24.1017 18.3695 24.2872 18.0851 24.5219 17.846C24.7565 17.6068 25.0356 17.4176 25.3428 17.2894C25.6501 17.1613 25.9793 17.0967 26.3113 17.0995C26.6432 17.1022 26.9714 17.1723 27.2765 17.3056C27.5816 17.4389 27.8576 17.6327 28.0883 17.8758L37.5211 27.4798L37.5178 27.4798Z" fill="#202041"/>
</svg>
